<?xml version="1.0" encoding="utf-8"?>
<!-- Generator: Adobe Illustrator 19.0.0, SVG Export Plug-In . SVG Version: 6.00 Build 0)  -->
<svg version="1.1" id="Layer_1" xmlns="http://www.w3.org/2000/svg" xmlns:xlink="http://www.w3.org/1999/xlink" x="0px" y="0px"
	 viewBox="0 0 352.7 35.7" style="enable-background:new 0 0 352.7 35.7;" xml:space="preserve">
<style type="text/css">
	.st0{fill:#FFFFFF;}
</style>
<g id="XMLID_2_">
	<g id="XMLID_3_">
		<g id="XMLID_192_">
			<g id="XMLID_221_">
				<g id="XMLID_174_">
					<path id="XMLID_179_" class="st0" d="M31.9,20.3c-2.5-0.9-5-1.6-7.6-2.3c-3.2-0.8-6.9-1.2-9.6-3.2c-3.3-2.5-3.5-6.6-0.7-9.5
						c1-1,2.4-1.9,3.8-2.2c0.8-0.2,2.2-0.2,3,0.2c1.7,0.9,0.3,4-0.5,2.8c-0.7-0.9-2.4-0.7-1.8,0.6c2,4.2,7.7,0.3,5.2-3.6
						c-2.7-4.1-9.3-2.6-12,0.6C8,8.4,9.9,14.1,14.7,17c2.8,1.6,5.9,2.1,9,2.8c2.8,0.6,5.6,1.4,8.4,1.9C33,21.8,32.4,20.5,31.9,20.3
						L31.9,20.3z"/>
				</g>
			</g>
			<g id="XMLID_214_">
				<g id="XMLID_111_">
					<path id="XMLID_172_" class="st0" d="M29.4,20.3c-4.7-1.1-9.7-0.7-14.3,0.5c-2.3,0.6-4.6,1.4-6.9,2c-1.3,0.3-7.1,1.3-4-1.3
						c0.7-0.6-0.3-1.5-1-1.4c-2,0.1-2.8,2-1.8,3.7c1,1.8,3.6,1.8,5.4,1.6c3.5-0.5,6.8-2,10.2-2.9c4.2-1.1,8.4-1.2,12.7-1
						C30.4,21.6,30,20.5,29.4,20.3L29.4,20.3z"/>
				</g>
			</g>
			<g id="XMLID_207_">
				<g id="XMLID_104_">
					<path id="XMLID_109_" class="st0" d="M27.7,20.1c-4-1.2-8.3-1.6-12.4-1.8c-1.9-0.1-3.8-0.1-5.6,0.1c-1,0.1-2.1,0.3-3.1,0.3
						c-1.7-0.1-2.9-1.5-1.1-2.8c0.7-0.5-0.3-1.6-0.9-1.4c-1.7,0.4-2.6,1.8-2,3.5c0.7,1.8,2.4,2.6,4.2,2.7c3.3,0.2,6.7-0.5,10-0.4
						c3.7,0.1,7.4,0.8,11.1,0.8C28.5,21,28.1,20.2,27.7,20.1L27.7,20.1z"/>
				</g>
			</g>
			<g id="XMLID_200_">
				<g id="XMLID_97_">
					<path id="XMLID_102_" class="st0" d="M29.4,20.2c-4.5-1.7-9.4-2.5-14.1-3.5c-2.4-0.5-9.8-1.6-7.9-5.5c0.3-0.7-1-1.6-1.5-1
						c-3.4,3.9,2.7,6.6,5.7,7.5c5.8,1.6,12,2.7,17.9,3.6C30.3,21.2,29.8,20.3,29.4,20.2L29.4,20.2z"/>
				</g>
			</g>
			<g id="XMLID_193_">
				<g id="XMLID_90_">
					<path id="XMLID_95_" class="st0" d="M28.5,21.4c15.2,0.8,30.6,0.4,45.8,0.5c20.6,0.1,41.3,0.2,61.9,0.2c6.7,0,13.4,0.2,20-0.2
						c1-0.1,0-1.6-0.6-1.6c-5.7-0.4-11.4-0.2-17.1-0.3c-9.4,0-18.9,0-28.3,0c-20.6,0-41.1,0-61.7,0.1c-6.7,0-13.5-0.1-20.2,0.3
						C27.5,20.5,28,21.4,28.5,21.4L28.5,21.4z"/>
				</g>
			</g>
		</g>
		<g id="XMLID_156_">
			<g id="XMLID_185_">
				<g id="XMLID_83_">
					<path id="XMLID_87_" class="st0" d="M320.4,22.1c2.9-0.5,5.8-1.3,8.7-1.9c3.1-0.6,6.3-1.1,9-2.9c4.8-3.2,5.4-9,1.4-13.1
						c-2.5-2.6-9-4.7-11.4-0.8c-2.2,3.6,3.7,8.2,5.4,4.3c0.4-0.9-1.4-2.3-2.1-1.4c-1.2,1.6-1.8-0.8-1-1.8c0.5-0.5,1.4-0.8,2.1-0.9
						c1.8-0.4,3.5,0.1,5,1.2c3.7,2.8,2.8,7.7-0.6,10.2c-2.8,2.1-6.5,2.5-9.8,3.4c-2.6,0.6-5.1,1.4-7.6,2.3
						C318.8,21.1,319.9,22.2,320.4,22.1L320.4,22.1z"/>
				</g>
			</g>
			<g id="XMLID_178_">
				<g id="XMLID_77_">
					<path id="XMLID_81_" class="st0" d="M322.9,22c4.5-0.3,8.7-0.1,13.1,1.1c3.3,0.9,6.6,2.4,10,2.8c1.7,0.2,4.3,0.3,4.8-1.7
						c0.5-1.9-1-3.4-2.7-3.6c-1-0.1-0.5,1.1,0,1.4c1.4,0.9-0.2,1.9-1.3,1.9c-1.1,0-2.1-0.2-3.2-0.5c-2.5-0.6-4.8-1.4-7.3-2.1
						c-4.6-1.2-9.5-1.8-14.2-0.6C321.3,21,322.3,22.1,322.9,22L322.9,22z"/>
				</g>
			</g>
			<g id="XMLID_171_">
				<g id="XMLID_71_">
					<path id="XMLID_75_" class="st0" d="M324.3,21.5c3.8,0,7.6-0.7,11.3-0.8c3.3-0.1,6.6,0.5,9.8,0.5c1.8,0,3.9-0.7,4.1-2.8
						c0.2-1.6-1.1-3-2.6-3.4c-1.1-0.3-0.8,0.9-0.2,1.3c2,1.3-0.6,2.7-1.5,2.8c-1,0.2-2-0.1-3-0.2c-2.1-0.2-4.1-0.2-6.2-0.1
						c-4,0.2-8.3,0.5-12.1,1.8C323.4,20.7,323.9,21.5,324.3,21.5L324.3,21.5z"/>
				</g>
			</g>
			<g id="XMLID_164_">
				<g id="XMLID_65_">
					<path id="XMLID_69_" class="st0" d="M322.8,21.6c3.6-0.5,7.2-1.3,10.8-2c2.4-0.4,4.8-0.8,7.2-1.5c3.3-0.9,8.3-3.2,5.1-7.2
						c-0.5-0.6-1.8-0.5-1.3,0.5c2,3.9-6.3,5.3-8.5,5.7c-4.7,1-9.6,1.7-14,3.5C321.6,20.9,322.4,21.7,322.8,21.6L322.8,21.6z"/>
				</g>
			</g>
			<g id="XMLID_157_">
				<g id="XMLID_59_">
					<path id="XMLID_63_" class="st0" d="M323.4,21c-15.2-0.8-30.6-0.4-45.8-0.5c-20.6-0.1-41.3-0.2-61.9-0.2
						c-6.7,0-13.4-0.2-20,0.2c-1,0.1,0,1.6,0.6,1.6c5.7,0.4,11.4,0.2,17.1,0.3c9.4,0,18.9,0,28.3,0c20.6,0,41.1,0,61.7-0.1
						c6.7,0,13.5,0.1,20.2-0.3C324.4,21.9,323.9,21,323.4,21L323.4,21z"/>
				</g>
			</g>
		</g>
		<g id="XMLID_4_">
			<g id="XMLID_149_">
				<g id="XMLID_53_">
					<path id="XMLID_57_" class="st0" d="M170.4,19.8c-1.5,0.4-3.1,0.8-4.7,1.1c-0.7,0.1-1.4,0.3-2.1,0.4c-0.4,0.1-2.8,0.7-2-0.6
						c0.4-0.7,4.3-0.4,4.8-0.4c1.7,0.1,3.3,0.6,5,0.5c0.9,0,0.6-1,0-1.3c-1.9-1-13.7-2.5-12.8,1.4c1.1,4.8,10.1,1.1,12.6,0.1
						C171.8,20.7,170.9,19.6,170.4,19.8L170.4,19.8z"/>
				</g>
			</g>
			<g id="XMLID_142_">
				<g id="XMLID_47_">
					<path id="XMLID_51_" class="st0" d="M171.8,19.6c-1.9,1.1-2.5,3.3-1.6,5.2c0.5,1.1,1.5,1.8,2.2,2.8c1.3,1.7,1.5,3.7,2.2,5.6
						c0.1,0.4,1.4,1.4,1.5,0.5c0.4-1.9-0.5-4-1.5-5.7c-0.5-0.9-1.3-1.6-1.9-2.4c-0.6-0.8-1.3-2.1-1.2-3.1c0-0.7,0.6-1.7,0.8-2.5
						C172.5,19.8,172.1,19.4,171.8,19.6L171.8,19.6z"/>
				</g>
			</g>
			<g id="XMLID_135_">
				<g id="XMLID_41_">
					<path id="XMLID_45_" class="st0" d="M172.2,19.2c-0.9-0.7-2-1.3-3-1.9c-0.5-0.3-0.9-0.5-1.4-0.8c-0.1-0.1-0.5-0.3-0.5-0.4
						c-0.1-0.2,0.3-0.1,0.6-0.1c0.9,0.1,1.7,0.6,2.2,1.3c0.6,0.8,0.7,1.7,1.1,2.6c0.3,0.5,1.1,0.9,1.4,0.3c0.7-1.3-0.8-3.3-1.7-4.2
						c-1.1-1.1-2.8-2-4.4-1.8c-1.8,0.2-1.3,2.1-0.3,3c0.7,0.7,1.6,1.1,2.5,1.5c1,0.5,2.1,1.1,3.2,1.5
						C172.5,20.3,172.6,19.5,172.2,19.2L172.2,19.2z"/>
				</g>
			</g>
			<g id="XMLID_128_">
				<g id="XMLID_35_">
					<path id="XMLID_39_" class="st0" d="M180.4,21c2.7,1.1,5.8,2.1,8.8,2.2c1.3,0.1,3.9-0.7,3.4-2.6c-0.5-1.7-3.1-1.8-4.5-2
						c-2.6-0.3-6.4-0.6-8.7,0.8c-0.7,0.4,0.2,1.4,0.7,1.4c1.5,0,3-0.4,4.5-0.5c1.5-0.1,4.2-0.3,5.5,0.4c1,0.1,0.9,0.2-0.1,0.5
						c-0.5,0.1-1.1,0.2-1.6,0.2c-0.8,0-1.6-0.2-2.4-0.3c-1.9-0.3-3.8-0.8-5.6-1.3C179.4,19.5,179.7,20.7,180.4,21L180.4,21z"/>
				</g>
			</g>
			<g id="XMLID_121_">
				<g id="XMLID_29_">
					<path id="XMLID_33_" class="st0" d="M178.6,19.9c0.3,1.7,1.2,3,0.1,4.7c-0.7,1.1-1.8,1.8-2.4,2.9c-1.1,1.7-1.8,3.7-1.5,5.7
						c0.1,0.6,1.2,1.2,1.5,0.5c0.7-1.7,0.9-3.5,1.9-5.1c0.7-1.1,1.8-2,2.4-3.1c1.2-2.1,0.3-4.4-1.5-5.8
						C178.9,19.5,178.6,19.5,178.6,19.9L178.6,19.9z"/>
				</g>
			</g>
			<g id="XMLID_114_">
				<g id="XMLID_23_">
					<path id="XMLID_27_" class="st0" d="M179.5,20.1c1.1-0.3,2.1-0.9,3-1.3c0.8-0.4,1.7-0.8,2.4-1.4c1.2-1,1.1-2.8-0.6-3.2
						c-1.5-0.4-3.2,0.4-4.3,1.3c-1.1,0.9-2.3,2.7-1.7,4.1c0.2,0.4,1,1.2,1.4,0.6c0.3-0.4,0.4-0.9,0.6-1.4c0.2-0.6,0.5-1.1,0.9-1.5
						c0.7-0.8,2.2-1.7,3.3-1.3c-0.2-0.2-0.5-0.3-0.7-0.5c0.1,0.2-2.3,1.7-2.4,1.7c-1,0.6-2,1.2-2.9,1.9
						C178.3,19.5,179.1,20.2,179.5,20.1L179.5,20.1z"/>
				</g>
			</g>
			<g id="XMLID_5_">
				<g id="XMLID_17_">
					<path id="XMLID_21_" class="st0" d="M175.6,20.3c0.5,0.6,0.7,1.7,0.5,2.5c-0.1,0.5-0.9,1.5-1.4,1c-0.4-0.4-0.2-1.5-0.1-2
						c0.3-0.9,1-0.9,1.7-1.3c0.6-0.4-0.1-1.1-0.5-1.3c-1.6-0.6-2.9,1-3.1,2.4c-0.2,1.5,0.3,3.2,1.7,3.9c1.3,0.6,2.8,0,3.3-1.3
						c0.5-1.4-0.1-3.5-1.3-4.4C175.8,19.2,175.1,19.6,175.6,20.3L175.6,20.3z"/>
				</g>
			</g>
		</g>
	</g>
</g>
</svg>
