<?xml version="1.0" encoding="utf-8"?>
<!-- Generator: Adobe Illustrator 19.0.0, SVG Export Plug-In . SVG Version: 6.00 Build 0)  -->
<svg version="1.1" id="Layer_1" xmlns="http://www.w3.org/2000/svg" xmlns:xlink="http://www.w3.org/1999/xlink" x="0px" y="0px"
	 viewBox="0 0 351.5 35.7" style="enable-background:new 0 0 351.5 35.7;" xml:space="preserve">
<style type="text/css">
	.st0{fill:#FFFFFF;}
</style>
<g id="XMLID_2_">
	<g id="XMLID_3_">
		<g id="XMLID_192_">
			<g id="XMLID_221_">
				<g id="XMLID_189_">
					<path id="XMLID_195_" class="st0" d="M320,14.9c2.5,0.9,5,1.6,7.6,2.2c3.2,0.8,6.9,1.2,9.6,3.2c3.3,2.5,3.5,6.5,0.7,9.5
						c-1,1-2.4,1.9-3.8,2.2c-0.8,0.2-2.2,0.2-3-0.2c-1.7-0.9-0.3-4,0.5-2.8c0.7,0.9,2.4,0.7,1.8-0.6c-2-4.2-7.7-0.3-5.2,3.6
						c2.7,4.1,9.3,2.6,12-0.6c3.7-4.5,1.8-10.2-2.9-13c-2.8-1.6-5.9-2.1-9-2.7c-2.8-0.6-5.6-1.4-8.4-1.9
						C318.9,13.5,319.5,14.8,320,14.9L320,14.9z"/>
				</g>
			</g>
			<g id="XMLID_214_">
				<g id="XMLID_111_">
					<path id="XMLID_187_" class="st0" d="M322.5,15c4.7,1.1,9.7,0.7,14.3-0.5c2.3-0.6,4.6-1.4,6.9-2c0.9-0.2,1.8-0.5,2.8-0.6
						c0.1,0,1.6-0.2,1.9,0.1c0.4,0.5,0,1.3-0.7,1.8c-0.7,0.6,0.3,1.5,1,1.4c2-0.1,2.8-2,1.8-3.7c-1-1.8-3.6-1.8-5.4-1.6
						c-3.5,0.5-6.8,2-10.1,2.9c-4.2,1.1-8.4,1.3-12.7,1C321.5,13.7,322,14.8,322.5,15L322.5,15z"/>
				</g>
			</g>
			<g id="XMLID_207_">
				<g id="XMLID_104_">
					<path id="XMLID_109_" class="st0" d="M324.2,15.2c4,1.2,8.3,1.6,12.4,1.8c1.9,0.1,3.8,0.1,5.6-0.1c1-0.1,2.1-0.3,3.1-0.3
						c1.7,0.1,3,1.5,1.1,2.8c-0.7,0.5,0.3,1.6,0.9,1.4c1.7-0.4,2.6-1.8,2-3.5c-0.7-1.8-2.4-2.6-4.2-2.7c-3.3-0.2-6.7,0.5-10,0.4
						c-3.7-0.1-7.4-0.8-11.1-0.8C323.4,14.3,323.8,15.1,324.2,15.2L324.2,15.2z"/>
				</g>
			</g>
			<g id="XMLID_200_">
				<g id="XMLID_97_">
					<path id="XMLID_102_" class="st0" d="M322.5,15.1c4.5,1.7,9.4,2.5,14.1,3.5c2.4,0.5,9.8,1.6,7.9,5.5c-0.3,0.7,1,1.6,1.5,1
						c3.4-3.9-2.7-6.6-5.7-7.4c-5.8-1.6-12-2.7-17.9-3.5C321.7,14.1,322.1,15,322.5,15.1L322.5,15.1z"/>
				</g>
			</g>
			<g id="XMLID_193_">
				<g id="XMLID_90_">
					<path id="XMLID_95_" class="st0" d="M323.4,13.8c-15.2-0.7-30.6-0.4-45.8-0.4c-20.6-0.1-41.3-0.1-61.9-0.1
						c-6.7,0-13.4-0.2-20,0.2c-1,0.1,0,1.6,0.6,1.6c5.8,0.3,11.6,0.2,17.3,0.2c9.5,0,18.9,0,28.4,0c20.6,0,41.2-0.1,61.8-0.2
						c6.6,0,13.3,0,19.9-0.3C324.4,14.8,323.8,13.9,323.4,13.8L323.4,13.8z"/>
				</g>
			</g>
		</g>
		<g id="XMLID_156_">
			<g id="XMLID_185_">
				<g id="XMLID_83_">
					<path id="XMLID_87_" class="st0" d="M31.6,13.7c-2.9,0.5-5.8,1.3-8.7,1.9c-3.1,0.6-6.3,1.1-9,2.9c-4.8,3.2-5.3,9-1.4,13.1
						c2.5,2.6,9,4.7,11.4,0.8c2.2-3.6-3.7-8.2-5.4-4.3c-0.4,0.9,1.4,2.3,2.1,1.4c1.2-1.6,1.8,0.8,1,1.7c-0.5,0.5-1.4,0.8-2.1,0.9
						c-1.6,0.3-3.3,0-4.6-1c-4-2.7-3.3-7.8,0.2-10.5c2.8-2.1,6.5-2.6,9.8-3.4c2.6-0.6,5.1-1.4,7.6-2.3
						C33.1,14.7,32.1,13.6,31.6,13.7L31.6,13.7z"/>
				</g>
			</g>
			<g id="XMLID_178_">
				<g id="XMLID_77_">
					<path id="XMLID_81_" class="st0" d="M29.1,13.8c-4.5,0.3-8.7,0.1-13.1-1.1c-3.3-0.9-6.6-2.3-10-2.8c-1.7-0.2-4.3-0.3-4.8,1.7
						c-0.5,1.9,1,3.4,2.7,3.6c1,0.1,0.5-1.1,0-1.4c-1.4-0.9,0.2-1.9,1.3-1.9c1.1,0,2.1,0.2,3.2,0.5c2.5,0.6,4.8,1.4,7.3,2.1
						c4.6,1.2,9.5,1.8,14.2,0.6C30.6,14.8,29.7,13.7,29.1,13.8L29.1,13.8z"/>
				</g>
			</g>
			<g id="XMLID_171_">
				<g id="XMLID_71_">
					<path id="XMLID_75_" class="st0" d="M27.6,14.3c-3.8,0-7.6,0.7-11.3,0.8c-3.3,0.1-6.6-0.5-9.8-0.5c-1.8,0-3.9,0.7-4.1,2.8
						c-0.2,1.6,1.1,3,2.6,3.4C6,21.2,5.7,20,5.1,19.6c-2-1.2,0.6-2.7,1.5-2.8c1-0.2,2,0.1,3,0.2c2.1,0.2,4.1,0.2,6.2,0.1
						c4-0.2,8.3-0.6,12.1-1.8C28.6,15.1,28,14.3,27.6,14.3L27.6,14.3z"/>
				</g>
			</g>
			<g id="XMLID_164_">
				<g id="XMLID_65_">
					<path id="XMLID_69_" class="st0" d="M29.1,14.2c-3.6,0.5-7.2,1.4-10.8,2c-2.4,0.4-4.8,0.8-7.2,1.5c-3.3,0.9-8.3,3.2-5.1,7.2
						c0.5,0.6,1.8,0.5,1.3-0.5c-2-3.9,6.3-5.3,8.4-5.8c4.7-1,9.6-1.8,14-3.5C30.4,14.9,29.5,14.1,29.1,14.2L29.1,14.2z"/>
				</g>
			</g>
			<g id="XMLID_157_">
				<g id="XMLID_59_">
					<path id="XMLID_63_" class="st0" d="M28.5,14.8c15.2,0.7,30.6,0.4,45.8,0.4c20.6,0.1,41.3,0.1,61.9,0.1c6.7,0,13.4,0.2,20-0.2
						c1-0.1,0-1.6-0.6-1.6c-5.8-0.3-11.6-0.2-17.3-0.2c-9.5,0-18.9,0-28.4,0c-20.6,0-41.2,0.1-61.8,0.2c-6.6,0-13.3,0-19.9,0.3
						C27.5,13.9,28.1,14.8,28.5,14.8L28.5,14.8z"/>
				</g>
			</g>
		</g>
		<g id="XMLID_4_">
			<g id="XMLID_149_">
				<g id="XMLID_53_">
					<path id="XMLID_57_" class="st0" d="M181.6,15.8c1.5-0.4,3.1-0.8,4.7-1.1c0.7-0.1,1.4-0.3,2.1-0.4c0.4-0.1,2.8-0.7,2,0.6
						c-0.4,0.7-4.3,0.4-4.8,0.4c-1.7-0.1-3.3-0.6-5-0.5c-0.9,0-0.6,1,0,1.3c1.9,1,13.7,2.5,12.8-1.4c-1.1-4.8-10.1-1.1-12.6-0.1
						C180.1,14.9,181,15.9,181.6,15.8L181.6,15.8z"/>
				</g>
			</g>
			<g id="XMLID_142_">
				<g id="XMLID_47_">
					<path id="XMLID_51_" class="st0" d="M180.1,15.9c1.9-1.1,2.5-3.3,1.5-5.2c-0.5-1.1-1.5-1.8-2.2-2.8c-1.3-1.7-1.5-3.7-2.2-5.6
						c-0.1-0.4-1.4-1.4-1.5-0.5c-0.4,1.9,0.5,4,1.5,5.7c0.5,0.9,1.3,1.6,1.9,2.4c0.6,0.8,1.3,2.1,1.3,3.1c0,0.7-0.6,1.7-0.8,2.5
						C179.5,15.7,179.8,16.1,180.1,15.9L180.1,15.9z"/>
				</g>
			</g>
			<g id="XMLID_135_">
				<g id="XMLID_41_">
					<path id="XMLID_45_" class="st0" d="M179.8,16.3c0.9,0.7,1.9,1.2,2.8,1.8c0.5,0.3,1,0.5,1.4,0.8c0.5,0.3,0.7,0.8-0.1,0.6
						c-0.9-0.2-1.6-0.7-2.1-1.4c-0.6-0.7-0.6-1.7-1-2.5c-0.3-0.5-1.1-0.9-1.4-0.3c-0.7,1.3,0.8,3.3,1.7,4.2c1.1,1.1,2.8,2,4.4,1.8
						c1.8-0.2,1.3-2.1,0.3-3c-0.7-0.7-1.6-1.1-2.5-1.5c-1-0.5-2.1-1.1-3.2-1.5C179.4,15.2,179.4,16,179.8,16.3L179.8,16.3z"/>
				</g>
			</g>
			<g id="XMLID_128_">
				<g id="XMLID_35_">
					<path id="XMLID_39_" class="st0" d="M171.6,14.6c-2.7-1.1-5.8-2.1-8.8-2.2c-1.3,0-3.9,0.7-3.4,2.6c0.5,1.7,3.1,1.8,4.5,2
						c2.6,0.3,6.4,0.6,8.7-0.9c0.7-0.4-0.2-1.4-0.7-1.4c-1.5,0-3,0.4-4.5,0.5c-1.5,0.1-4.2,0.3-5.5-0.4c-1-0.1-0.9-0.2,0.1-0.5
						c0.5-0.1,1.1-0.2,1.6-0.2c0.8,0,1.6,0.2,2.4,0.3c1.9,0.3,3.8,0.8,5.6,1.3C172.5,16,172.2,14.8,171.6,14.6L171.6,14.6z"/>
				</g>
			</g>
			<g id="XMLID_121_">
				<g id="XMLID_29_">
					<path id="XMLID_33_" class="st0" d="M173.3,15.7c-0.3-1.7-1.2-3-0.1-4.7c0.7-1.1,1.8-1.8,2.4-2.9c1.1-1.7,1.8-3.7,1.5-5.7
						c-0.1-0.6-1.2-1.2-1.5-0.5c-0.7,1.7-0.9,3.5-1.9,5.1c-0.7,1.1-1.8,2-2.4,3.1c-1.2,2.1-0.3,4.4,1.5,5.8
						C173,16,173.4,16,173.3,15.7L173.3,15.7z"/>
				</g>
			</g>
			<g id="XMLID_114_">
				<g id="XMLID_23_">
					<path id="XMLID_27_" class="st0" d="M172.5,15.4c-1.1,0.3-2.1,0.9-3,1.4c-0.8,0.4-1.7,0.8-2.4,1.4c-1.2,1-1.1,2.8,0.6,3.2
						c1.5,0.4,3.2-0.4,4.3-1.3c1.1-0.9,2.3-2.7,1.7-4.2c-0.2-0.4-1-1.2-1.4-0.6c-0.3,0.4-0.4,0.9-0.6,1.4c-0.2,0.6-0.5,1.1-0.9,1.5
						c-0.7,0.8-2.2,1.7-3.3,1.3c0.2,0.2,0.5,0.3,0.7,0.5c-0.1-0.2,2.3-1.7,2.4-1.7c1-0.6,2-1.2,2.9-1.9
						C173.7,16,172.9,15.3,172.5,15.4L172.5,15.4z"/>
				</g>
			</g>
			<g id="XMLID_5_">
				<g id="XMLID_17_">
					<path id="XMLID_21_" class="st0" d="M176.3,15.2c-0.5-0.6-0.7-1.7-0.5-2.5c0.1-0.5,0.8-1.5,1.4-1c0.4,0.4,0.2,1.5,0.1,2
						c-0.3,0.9-1,0.9-1.7,1.3c-0.6,0.4,0.1,1.1,0.5,1.3c1.6,0.6,2.9-1,3.1-2.4c0.2-1.5-0.3-3.2-1.7-3.9c-1.3-0.6-2.8,0-3.3,1.4
						c-0.5,1.4,0.1,3.5,1.3,4.4C176.1,16.4,176.8,15.9,176.3,15.2L176.3,15.2z"/>
				</g>
			</g>
		</g>
	</g>
</g>
</svg>
