<?xml version="1.0" encoding="utf-8"?>
<!-- Generator: Adobe Illustrator 19.0.0, SVG Export Plug-In . SVG Version: 6.00 Build 0)  -->
<svg version="1.1" id="Layer_1" xmlns="http://www.w3.org/2000/svg" xmlns:xlink="http://www.w3.org/1999/xlink" x="0px" y="0px"
	 viewBox="0 0 245.7 38.8" style="enable-background:new 0 0 245.7 38.8;" xml:space="preserve">
<style type="text/css">
	.st0{fill:none;stroke:#FFFFFF;stroke-width:1.5;stroke-miterlimit:10;}
</style>
<path id="XMLID_38_" class="st0" d="M241.2,4.5c-1.7-0.3-3.1-0.8-4-1.4c-0.9-0.5-1.2-1.2-1.1-1.8H9.9c0,0,0,0,0,0v0
	c0,0.9-1,1.7-2.6,2.3c-1.6,0.6-3.9,0.9-6.1,1v29.8c2.2,0,4.6,0.4,6.2,1C9,36,10,36.9,10,37.7v0h225.9c0-0.8,1.1-1.7,2.5-2.2
	c1.6-0.6,3.9-1,6.2-1h0.1c0,0,0.1,0,0.1,0V4.8C243.5,4.8,242.2,4.7,241.2,4.5z"/>
</svg>
